<mxfile host="Electron" modified="2025-05-17T21:16:58.730Z" agent="Mozilla/5.0 (Windows NT 10.0; Win64; x64) AppleWebKit/537.36 (KHTML, like Gecko) draw.io/24.6.4 Chrome/124.0.6367.207 Electron/30.0.6 Safari/537.36" etag="oJjz2ju0wgHFFXqN31Vm" version="24.6.4" type="device" pages="2">
  <diagram name="blog" id="pGGfLqOhsVjJHPzpDrVL">
    <mxGraphModel dx="2085" dy="731" grid="1" gridSize="10" guides="1" tooltips="1" connect="1" arrows="1" fold="1" page="1" pageScale="1" pageWidth="850" pageHeight="1100" math="0" shadow="0">
      <root>
        <mxCell id="0" />
        <mxCell id="1" parent="0" />
        <mxCell id="Qf7lDK0BXLIythnl8Rrb-2" style="edgeStyle=orthogonalEdgeStyle;rounded=0;orthogonalLoop=1;jettySize=auto;html=1;entryX=0.5;entryY=0;entryDx=0;entryDy=0;" edge="1" parent="1" source="lh2ICF4bqdfpJEElMJnl-1" target="lh2ICF4bqdfpJEElMJnl-30">
          <mxGeometry relative="1" as="geometry" />
        </mxCell>
        <mxCell id="lh2ICF4bqdfpJEElMJnl-1" value="post / post / post" style="rounded=1;whiteSpace=wrap;html=1;fillColor=#ffe6cc;strokeColor=#d79b00;" vertex="1" parent="1">
          <mxGeometry x="120" y="130" width="230" height="270" as="geometry" />
        </mxCell>
        <mxCell id="Qf7lDK0BXLIythnl8Rrb-7" style="edgeStyle=orthogonalEdgeStyle;rounded=0;orthogonalLoop=1;jettySize=auto;html=1;" edge="1" parent="1" source="lh2ICF4bqdfpJEElMJnl-3" target="lh2ICF4bqdfpJEElMJnl-12">
          <mxGeometry relative="1" as="geometry" />
        </mxCell>
        <mxCell id="Qf7lDK0BXLIythnl8Rrb-9" style="edgeStyle=orthogonalEdgeStyle;rounded=0;orthogonalLoop=1;jettySize=auto;html=1;entryX=1;entryY=0.5;entryDx=0;entryDy=0;" edge="1" parent="1" source="lh2ICF4bqdfpJEElMJnl-3" target="lh2ICF4bqdfpJEElMJnl-33">
          <mxGeometry relative="1" as="geometry" />
        </mxCell>
        <mxCell id="Qf7lDK0BXLIythnl8Rrb-11" style="edgeStyle=orthogonalEdgeStyle;rounded=0;orthogonalLoop=1;jettySize=auto;html=1;entryX=1;entryY=0.5;entryDx=0;entryDy=0;" edge="1" parent="1" source="lh2ICF4bqdfpJEElMJnl-3" target="lh2ICF4bqdfpJEElMJnl-36">
          <mxGeometry relative="1" as="geometry" />
        </mxCell>
        <mxCell id="lh2ICF4bqdfpJEElMJnl-3" value="post-single" style="rounded=1;whiteSpace=wrap;html=1;" vertex="1" parent="1">
          <mxGeometry x="-85" y="580" width="120" height="60" as="geometry" />
        </mxCell>
        <mxCell id="lh2ICF4bqdfpJEElMJnl-4" value="404" style="rounded=1;whiteSpace=wrap;html=1;" vertex="1" parent="1">
          <mxGeometry x="-320" y="570" width="120" height="60" as="geometry" />
        </mxCell>
        <mxCell id="lh2ICF4bqdfpJEElMJnl-5" value="search" style="rounded=1;whiteSpace=wrap;html=1;" vertex="1" parent="1">
          <mxGeometry x="590" y="140" width="120" height="60" as="geometry" />
        </mxCell>
        <mxCell id="lh2ICF4bqdfpJEElMJnl-17" style="edgeStyle=orthogonalEdgeStyle;rounded=0;orthogonalLoop=1;jettySize=auto;html=1;" edge="1" parent="1" source="lh2ICF4bqdfpJEElMJnl-6" target="lh2ICF4bqdfpJEElMJnl-5">
          <mxGeometry relative="1" as="geometry" />
        </mxCell>
        <mxCell id="lh2ICF4bqdfpJEElMJnl-6" value="search" style="rounded=1;whiteSpace=wrap;html=1;fillColor=#f5f5f5;fontColor=#333333;strokeColor=#666666;" vertex="1" parent="1">
          <mxGeometry x="380" y="140" width="120" height="60" as="geometry" />
        </mxCell>
        <mxCell id="lh2ICF4bqdfpJEElMJnl-7" value="newsletter" style="rounded=1;whiteSpace=wrap;html=1;fillColor=#f5f5f5;fontColor=#333333;strokeColor=#666666;" vertex="1" parent="1">
          <mxGeometry x="380" y="320" width="120" height="60" as="geometry" />
        </mxCell>
        <mxCell id="lh2ICF4bqdfpJEElMJnl-8" value="navbar" style="rounded=1;whiteSpace=wrap;html=1;fillColor=#f5f5f5;fontColor=#333333;strokeColor=#666666;" vertex="1" parent="1">
          <mxGeometry x="130" y="60" width="350" height="60" as="geometry" />
        </mxCell>
        <mxCell id="Qf7lDK0BXLIythnl8Rrb-8" style="edgeStyle=orthogonalEdgeStyle;rounded=0;orthogonalLoop=1;jettySize=auto;html=1;entryX=1;entryY=0.5;entryDx=0;entryDy=0;" edge="1" parent="1" source="lh2ICF4bqdfpJEElMJnl-12" target="lh2ICF4bqdfpJEElMJnl-3">
          <mxGeometry relative="1" as="geometry" />
        </mxCell>
        <mxCell id="lh2ICF4bqdfpJEElMJnl-12" value="comment-store" style="shape=process;whiteSpace=wrap;html=1;backgroundOutline=1;" vertex="1" parent="1">
          <mxGeometry x="110" y="580" width="120" height="60" as="geometry" />
        </mxCell>
        <mxCell id="lh2ICF4bqdfpJEElMJnl-40" style="edgeStyle=orthogonalEdgeStyle;rounded=0;orthogonalLoop=1;jettySize=auto;html=1;" edge="1" parent="1" source="lh2ICF4bqdfpJEElMJnl-13" target="lh2ICF4bqdfpJEElMJnl-7">
          <mxGeometry relative="1" as="geometry">
            <Array as="points">
              <mxPoint x="440" y="440" />
              <mxPoint x="440" y="440" />
            </Array>
          </mxGeometry>
        </mxCell>
        <mxCell id="lh2ICF4bqdfpJEElMJnl-13" value="newsletter-subscriber-store" style="shape=process;whiteSpace=wrap;html=1;backgroundOutline=1;" vertex="1" parent="1">
          <mxGeometry x="390" y="460" width="120" height="60" as="geometry" />
        </mxCell>
        <mxCell id="lh2ICF4bqdfpJEElMJnl-18" style="edgeStyle=orthogonalEdgeStyle;rounded=0;orthogonalLoop=1;jettySize=auto;html=1;entryX=0.418;entryY=0.04;entryDx=0;entryDy=0;entryPerimeter=0;" edge="1" parent="1" source="lh2ICF4bqdfpJEElMJnl-7" target="lh2ICF4bqdfpJEElMJnl-13">
          <mxGeometry relative="1" as="geometry" />
        </mxCell>
        <mxCell id="lh2ICF4bqdfpJEElMJnl-26" style="edgeStyle=orthogonalEdgeStyle;rounded=0;orthogonalLoop=1;jettySize=auto;html=1;entryX=-0.003;entryY=0.563;entryDx=0;entryDy=0;entryPerimeter=0;curved=1;exitX=0;exitY=0.5;exitDx=0;exitDy=0;" edge="1" parent="1" source="lh2ICF4bqdfpJEElMJnl-8" target="lh2ICF4bqdfpJEElMJnl-1">
          <mxGeometry relative="1" as="geometry" />
        </mxCell>
        <mxCell id="lh2ICF4bqdfpJEElMJnl-27" value="index" style="text;html=1;align=center;verticalAlign=middle;whiteSpace=wrap;rounded=0;" vertex="1" parent="1">
          <mxGeometry x="200" y="140" width="60" height="30" as="geometry" />
        </mxCell>
        <mxCell id="lh2ICF4bqdfpJEElMJnl-29" style="edgeStyle=orthogonalEdgeStyle;rounded=0;orthogonalLoop=1;jettySize=auto;html=1;" edge="1" parent="1" source="lh2ICF4bqdfpJEElMJnl-28" target="lh2ICF4bqdfpJEElMJnl-1">
          <mxGeometry relative="1" as="geometry" />
        </mxCell>
        <mxCell id="lh2ICF4bqdfpJEElMJnl-28" value="categories" style="rounded=1;whiteSpace=wrap;html=1;fillColor=#f5f5f5;strokeColor=#666666;fontColor=#333333;" vertex="1" parent="1">
          <mxGeometry x="380" y="235" width="120" height="60" as="geometry" />
        </mxCell>
        <mxCell id="Qf7lDK0BXLIythnl8Rrb-3" style="edgeStyle=orthogonalEdgeStyle;rounded=0;orthogonalLoop=1;jettySize=auto;html=1;entryX=0.5;entryY=0;entryDx=0;entryDy=0;" edge="1" parent="1" source="lh2ICF4bqdfpJEElMJnl-30" target="lh2ICF4bqdfpJEElMJnl-4">
          <mxGeometry relative="1" as="geometry" />
        </mxCell>
        <mxCell id="Qf7lDK0BXLIythnl8Rrb-4" value="yes" style="edgeLabel;html=1;align=center;verticalAlign=middle;resizable=0;points=[];" vertex="1" connectable="0" parent="Qf7lDK0BXLIythnl8Rrb-3">
          <mxGeometry x="-0.4404" y="-1" relative="1" as="geometry">
            <mxPoint as="offset" />
          </mxGeometry>
        </mxCell>
        <mxCell id="Qf7lDK0BXLIythnl8Rrb-5" style="edgeStyle=orthogonalEdgeStyle;rounded=0;orthogonalLoop=1;jettySize=auto;html=1;entryX=0.5;entryY=0;entryDx=0;entryDy=0;" edge="1" parent="1" source="lh2ICF4bqdfpJEElMJnl-30" target="lh2ICF4bqdfpJEElMJnl-3">
          <mxGeometry relative="1" as="geometry" />
        </mxCell>
        <mxCell id="Qf7lDK0BXLIythnl8Rrb-6" value="no" style="edgeLabel;html=1;align=center;verticalAlign=middle;resizable=0;points=[];" vertex="1" connectable="0" parent="Qf7lDK0BXLIythnl8Rrb-5">
          <mxGeometry x="-0.1647" y="-1" relative="1" as="geometry">
            <mxPoint as="offset" />
          </mxGeometry>
        </mxCell>
        <mxCell id="lh2ICF4bqdfpJEElMJnl-30" value="&lt;div style=&quot;color: rgb(151, 167, 200); background-color: rgb(33, 40, 54); font-family: Consolas, &amp;quot;Courier New&amp;quot;, monospace; font-size: 14px; line-height: 19px; white-space: pre;&quot;&gt;&lt;span style=&quot;color: #71b1fe;&quot;&gt;empty&lt;/span&gt;(&lt;span style=&quot;color: #d8d8d8;&quot;&gt;$&lt;/span&gt;&lt;span style=&quot;color: #e26674;&quot;&gt;postId&lt;/span&gt;)&lt;/div&gt;" style="rhombus;whiteSpace=wrap;html=1;" vertex="1" parent="1">
          <mxGeometry x="-100" y="410" width="150" height="80" as="geometry" />
        </mxCell>
        <mxCell id="lh2ICF4bqdfpJEElMJnl-33" value="&lt;div style=&quot;color: rgb(151, 167, 200); background-color: rgb(33, 40, 54); font-family: Consolas, &amp;quot;Courier New&amp;quot;, monospace; font-size: 14px; line-height: 19px; white-space: pre;&quot;&gt;&lt;span style=&quot;color: #71b1fe;&quot;&gt;empty&lt;/span&gt;(&lt;span style=&quot;color: #d8d8d8;&quot;&gt;$&lt;/span&gt;&lt;span style=&quot;color: #e26674;&quot;&gt;post&lt;/span&gt;)&lt;/div&gt;" style="rhombus;whiteSpace=wrap;html=1;" vertex="1" parent="1">
          <mxGeometry x="-220" y="680" width="160" height="80" as="geometry" />
        </mxCell>
        <mxCell id="Qf7lDK0BXLIythnl8Rrb-12" style="edgeStyle=orthogonalEdgeStyle;rounded=0;orthogonalLoop=1;jettySize=auto;html=1;entryX=0.25;entryY=1;entryDx=0;entryDy=0;" edge="1" parent="1" source="lh2ICF4bqdfpJEElMJnl-36" target="lh2ICF4bqdfpJEElMJnl-4">
          <mxGeometry relative="1" as="geometry">
            <Array as="points">
              <mxPoint x="-290" y="840" />
            </Array>
          </mxGeometry>
        </mxCell>
        <mxCell id="lh2ICF4bqdfpJEElMJnl-36" value="&lt;div style=&quot;color: rgb(151, 167, 200); background-color: rgb(33, 40, 54); font-family: Consolas, &amp;quot;Courier New&amp;quot;, monospace; font-size: 14px; line-height: 19px; white-space: pre;&quot;&gt;&lt;span style=&quot;color: #e76572;&quot;&gt;post PDOException&lt;/span&gt;&lt;/div&gt;" style="rhombus;whiteSpace=wrap;html=1;" vertex="1" parent="1">
          <mxGeometry x="-235" y="800" width="190" height="80" as="geometry" />
        </mxCell>
        <mxCell id="Qf7lDK0BXLIythnl8Rrb-10" style="edgeStyle=orthogonalEdgeStyle;rounded=0;orthogonalLoop=1;jettySize=auto;html=1;entryX=0.35;entryY=1.05;entryDx=0;entryDy=0;entryPerimeter=0;" edge="1" parent="1" source="lh2ICF4bqdfpJEElMJnl-33" target="lh2ICF4bqdfpJEElMJnl-4">
          <mxGeometry relative="1" as="geometry">
            <Array as="points">
              <mxPoint x="-230" y="720" />
              <mxPoint x="-230" y="655" />
              <mxPoint x="-278" y="655" />
            </Array>
          </mxGeometry>
        </mxCell>
      </root>
    </mxGraphModel>
  </diagram>
  <diagram id="-rXlDpl43anQJ0os8phu" name="admin-panel">
    <mxGraphModel dx="2350" dy="1987" grid="1" gridSize="10" guides="1" tooltips="1" connect="1" arrows="1" fold="1" page="1" pageScale="1" pageWidth="850" pageHeight="1100" math="0" shadow="0">
      <root>
        <mxCell id="0" />
        <mxCell id="1" parent="0" />
        <mxCell id="OePJW2D6s2tJLJosY-g_-30" value="" style="rounded=0;whiteSpace=wrap;html=1;fillColor=#e1d5e7;strokeColor=#9673a6;" parent="1" vertex="1">
          <mxGeometry x="130" y="180" width="890" height="340" as="geometry" />
        </mxCell>
        <mxCell id="OePJW2D6s2tJLJosY-g_-6" value="" style="rounded=1;whiteSpace=wrap;html=1;" parent="1" vertex="1">
          <mxGeometry x="140" y="270" width="850" height="100" as="geometry" />
        </mxCell>
        <mxCell id="OePJW2D6s2tJLJosY-g_-13" style="edgeStyle=orthogonalEdgeStyle;rounded=0;orthogonalLoop=1;jettySize=auto;html=1;" parent="1" source="OePJW2D6s2tJLJosY-g_-1" target="OePJW2D6s2tJLJosY-g_-12" edge="1">
          <mxGeometry relative="1" as="geometry" />
        </mxCell>
        <mxCell id="OePJW2D6s2tJLJosY-g_-1" value="create a post" style="rounded=1;whiteSpace=wrap;html=1;fillColor=#1ba1e2;fontColor=#ffffff;strokeColor=#006EAF;" parent="1" vertex="1">
          <mxGeometry x="272.5" y="200" width="95" height="30" as="geometry" />
        </mxCell>
        <mxCell id="u1kQUCtdj3Jz3g5r8L6l-25" style="edgeStyle=orthogonalEdgeStyle;rounded=0;orthogonalLoop=1;jettySize=auto;html=1;entryX=0.5;entryY=1;entryDx=0;entryDy=0;" edge="1" parent="1" source="OePJW2D6s2tJLJosY-g_-2" target="u1kQUCtdj3Jz3g5r8L6l-24">
          <mxGeometry relative="1" as="geometry" />
        </mxCell>
        <mxCell id="OePJW2D6s2tJLJosY-g_-2" value="delete" style="rounded=1;whiteSpace=wrap;html=1;fillColor=#f8cecc;strokeColor=#b85450;" parent="1" vertex="1">
          <mxGeometry x="455" y="295" width="70" height="30" as="geometry" />
        </mxCell>
        <mxCell id="u1kQUCtdj3Jz3g5r8L6l-4" style="edgeStyle=orthogonalEdgeStyle;rounded=0;orthogonalLoop=1;jettySize=auto;html=1;strokeWidth=3;strokeColor=#2f9753;" edge="1" parent="1" source="OePJW2D6s2tJLJosY-g_-3">
          <mxGeometry relative="1" as="geometry">
            <mxPoint x="920" y="-50" as="targetPoint" />
          </mxGeometry>
        </mxCell>
        <mxCell id="OePJW2D6s2tJLJosY-g_-3" value="edit" style="rounded=1;whiteSpace=wrap;html=1;fillColor=#f5f5f5;strokeColor=#666666;fontColor=#333333;" parent="1" vertex="1">
          <mxGeometry x="880" y="305" width="80" height="30" as="geometry" />
        </mxCell>
        <mxCell id="bxinFj55uXs6JCk0epcP-1" style="edgeStyle=orthogonalEdgeStyle;rounded=0;orthogonalLoop=1;jettySize=auto;html=1;entryX=0.5;entryY=1;entryDx=0;entryDy=0;" parent="1" source="OePJW2D6s2tJLJosY-g_-7" target="OePJW2D6s2tJLJosY-g_-52" edge="1">
          <mxGeometry relative="1" as="geometry" />
        </mxCell>
        <mxCell id="OePJW2D6s2tJLJosY-g_-7" value="post" style="text;html=1;align=center;verticalAlign=middle;whiteSpace=wrap;rounded=0;fillColor=#d5e8d4;strokeColor=#82b366;" parent="1" vertex="1">
          <mxGeometry x="150" y="295" width="60" height="30" as="geometry" />
        </mxCell>
        <mxCell id="OePJW2D6s2tJLJosY-g_-8" value="" style="rounded=1;whiteSpace=wrap;html=1;" parent="1" vertex="1">
          <mxGeometry x="140" y="390" width="460" height="80" as="geometry" />
        </mxCell>
        <mxCell id="OePJW2D6s2tJLJosY-g_-23" style="edgeStyle=orthogonalEdgeStyle;rounded=0;orthogonalLoop=1;jettySize=auto;html=1;" parent="1" source="OePJW2D6s2tJLJosY-g_-9" target="OePJW2D6s2tJLJosY-g_-20" edge="1">
          <mxGeometry relative="1" as="geometry" />
        </mxCell>
        <mxCell id="OePJW2D6s2tJLJosY-g_-9" value="delete" style="rounded=1;whiteSpace=wrap;html=1;fillColor=#f8cecc;strokeColor=#b85450;" parent="1" vertex="1">
          <mxGeometry x="520" y="410" width="70" height="40" as="geometry" />
        </mxCell>
        <mxCell id="OePJW2D6s2tJLJosY-g_-22" style="edgeStyle=orthogonalEdgeStyle;rounded=0;orthogonalLoop=1;jettySize=auto;html=1;" parent="1" source="OePJW2D6s2tJLJosY-g_-10" target="OePJW2D6s2tJLJosY-g_-21" edge="1">
          <mxGeometry relative="1" as="geometry" />
        </mxCell>
        <mxCell id="OePJW2D6s2tJLJosY-g_-10" value="accept" style="rounded=1;whiteSpace=wrap;html=1;fillColor=#f5f5f5;fontColor=#333333;strokeColor=#666666;" parent="1" vertex="1">
          <mxGeometry x="425" y="410" width="80" height="40" as="geometry" />
        </mxCell>
        <mxCell id="OePJW2D6s2tJLJosY-g_-11" value="comment" style="text;html=1;align=center;verticalAlign=middle;whiteSpace=wrap;rounded=0;" parent="1" vertex="1">
          <mxGeometry x="180" y="415" width="60" height="30" as="geometry" />
        </mxCell>
        <mxCell id="OePJW2D6s2tJLJosY-g_-12" value="posts/view/create" style="rounded=1;whiteSpace=wrap;html=1;" parent="1" vertex="1">
          <mxGeometry x="260" y="90" width="120" height="60" as="geometry" />
        </mxCell>
        <mxCell id="OePJW2D6s2tJLJosY-g_-14" value="" style="rounded=1;whiteSpace=wrap;html=1;" parent="1" vertex="1">
          <mxGeometry x="325" y="-550" width="410" height="100" as="geometry" />
        </mxCell>
        <mxCell id="u1kQUCtdj3Jz3g5r8L6l-11" style="edgeStyle=orthogonalEdgeStyle;rounded=0;orthogonalLoop=1;jettySize=auto;html=1;" edge="1" parent="1" source="OePJW2D6s2tJLJosY-g_-16" target="u1kQUCtdj3Jz3g5r8L6l-1">
          <mxGeometry relative="1" as="geometry" />
        </mxCell>
        <mxCell id="OePJW2D6s2tJLJosY-g_-16" value="posts/view/edit" style="rounded=1;whiteSpace=wrap;html=1;" parent="1" vertex="1">
          <mxGeometry x="860" y="-270" width="120" height="60" as="geometry" />
        </mxCell>
        <mxCell id="u1kQUCtdj3Jz3g5r8L6l-37" style="edgeStyle=orthogonalEdgeStyle;rounded=0;orthogonalLoop=1;jettySize=auto;html=1;entryX=0.5;entryY=1;entryDx=0;entryDy=0;" edge="1" parent="1" source="OePJW2D6s2tJLJosY-g_-18" target="u1kQUCtdj3Jz3g5r8L6l-36">
          <mxGeometry relative="1" as="geometry" />
        </mxCell>
        <mxCell id="OePJW2D6s2tJLJosY-g_-18" value="posts/controller/delete" style="rounded=1;whiteSpace=wrap;html=1;" parent="1" vertex="1">
          <mxGeometry x="480" y="-190" width="130" height="40" as="geometry" />
        </mxCell>
        <mxCell id="OePJW2D6s2tJLJosY-g_-20" value="comments/controller/delete" style="rounded=1;whiteSpace=wrap;html=1;" parent="1" vertex="1">
          <mxGeometry x="540" y="640" width="170" height="60" as="geometry" />
        </mxCell>
        <mxCell id="OePJW2D6s2tJLJosY-g_-21" value="comments/controller/accept" style="rounded=1;whiteSpace=wrap;html=1;" parent="1" vertex="1">
          <mxGeometry x="340" y="640" width="170" height="60" as="geometry" />
        </mxCell>
        <mxCell id="OePJW2D6s2tJLJosY-g_-24" value="" style="rounded=1;whiteSpace=wrap;html=1;" parent="1" vertex="1">
          <mxGeometry x="-50" y="180" width="120" height="330" as="geometry" />
        </mxCell>
        <mxCell id="OePJW2D6s2tJLJosY-g_-25" value="dashboard" style="text;html=1;align=center;verticalAlign=middle;whiteSpace=wrap;rounded=0;fillColor=#dae8fc;strokeColor=#6c8ebf;" parent="1" vertex="1">
          <mxGeometry x="-25" y="200" width="70" height="30" as="geometry" />
        </mxCell>
        <mxCell id="OePJW2D6s2tJLJosY-g_-26" value="posts" style="text;html=1;align=center;verticalAlign=middle;whiteSpace=wrap;rounded=0;fillColor=#dae8fc;strokeColor=#6c8ebf;" parent="1" vertex="1">
          <mxGeometry x="-30" y="290" width="70" height="30" as="geometry" />
        </mxCell>
        <mxCell id="OePJW2D6s2tJLJosY-g_-37" style="edgeStyle=orthogonalEdgeStyle;rounded=0;orthogonalLoop=1;jettySize=auto;html=1;entryX=0.25;entryY=0;entryDx=0;entryDy=0;" parent="1" source="OePJW2D6s2tJLJosY-g_-27" target="OePJW2D6s2tJLJosY-g_-36" edge="1">
          <mxGeometry relative="1" as="geometry" />
        </mxCell>
        <mxCell id="OePJW2D6s2tJLJosY-g_-27" value="comments" style="text;html=1;align=center;verticalAlign=middle;whiteSpace=wrap;rounded=0;fillColor=#dae8fc;strokeColor=#6c8ebf;" parent="1" vertex="1">
          <mxGeometry x="-30" y="370" width="70" height="30" as="geometry" />
        </mxCell>
        <mxCell id="OePJW2D6s2tJLJosY-g_-28" value="exit" style="text;html=1;align=center;verticalAlign=middle;whiteSpace=wrap;rounded=0;fillColor=#dae8fc;strokeColor=#6c8ebf;" parent="1" vertex="1">
          <mxGeometry x="-30" y="460" width="70" height="30" as="geometry" />
        </mxCell>
        <mxCell id="OePJW2D6s2tJLJosY-g_-31" style="edgeStyle=orthogonalEdgeStyle;rounded=0;orthogonalLoop=1;jettySize=auto;html=1;entryX=-0.001;entryY=0.101;entryDx=0;entryDy=0;entryPerimeter=0;" parent="1" source="OePJW2D6s2tJLJosY-g_-25" target="OePJW2D6s2tJLJosY-g_-30" edge="1">
          <mxGeometry relative="1" as="geometry" />
        </mxCell>
        <mxCell id="OePJW2D6s2tJLJosY-g_-32" value="" style="rounded=1;whiteSpace=wrap;html=1;" parent="1" vertex="1">
          <mxGeometry x="-170" y="-650" width="300" height="290" as="geometry" />
        </mxCell>
        <mxCell id="OePJW2D6s2tJLJosY-g_-36" value="comments/view/index" style="rounded=1;whiteSpace=wrap;html=1;" parent="1" vertex="1">
          <mxGeometry x="80" y="630" width="130" height="60" as="geometry" />
        </mxCell>
        <mxCell id="OePJW2D6s2tJLJosY-g_-40" value="posts/view/index" style="text;html=1;align=center;verticalAlign=middle;whiteSpace=wrap;rounded=0;fillColor=#f5f5f5;fontColor=#333333;strokeColor=#666666;" parent="1" vertex="1">
          <mxGeometry x="-160" y="-630" width="90" height="30" as="geometry" />
        </mxCell>
        <mxCell id="OePJW2D6s2tJLJosY-g_-41" value="create a post" style="rounded=1;whiteSpace=wrap;html=1;fillColor=#1ba1e2;fontColor=#ffffff;strokeColor=#006EAF;" parent="1" vertex="1">
          <mxGeometry x="-35" y="-620" width="90" height="30" as="geometry" />
        </mxCell>
        <mxCell id="OePJW2D6s2tJLJosY-g_-42" value="post" style="text;html=1;align=center;verticalAlign=middle;whiteSpace=wrap;rounded=0;fillColor=#d5e8d4;strokeColor=#82b366;" parent="1" vertex="1">
          <mxGeometry x="-150" y="-490" width="60" height="30" as="geometry" />
        </mxCell>
        <mxCell id="OePJW2D6s2tJLJosY-g_-43" value="post" style="text;html=1;align=center;verticalAlign=middle;whiteSpace=wrap;rounded=0;fillColor=#d5e8d4;strokeColor=#82b366;" parent="1" vertex="1">
          <mxGeometry x="-150" y="-440" width="60" height="30" as="geometry" />
        </mxCell>
        <mxCell id="OePJW2D6s2tJLJosY-g_-44" value="delete" style="rounded=1;whiteSpace=wrap;html=1;fillColor=#f8cecc;strokeColor=#b85450;" parent="1" vertex="1">
          <mxGeometry x="-40" y="-565" width="70" height="30" as="geometry" />
        </mxCell>
        <mxCell id="OePJW2D6s2tJLJosY-g_-45" value="edit" style="rounded=1;whiteSpace=wrap;html=1;fillColor=#f5f5f5;strokeColor=#666666;fontColor=#333333;" parent="1" vertex="1">
          <mxGeometry x="40" y="-565" width="80" height="30" as="geometry" />
        </mxCell>
        <mxCell id="OePJW2D6s2tJLJosY-g_-46" value="edit" style="rounded=1;whiteSpace=wrap;html=1;fillColor=#f5f5f5;strokeColor=#666666;fontColor=#333333;" parent="1" vertex="1">
          <mxGeometry x="40" y="-490" width="80" height="30" as="geometry" />
        </mxCell>
        <mxCell id="OePJW2D6s2tJLJosY-g_-47" value="delete" style="rounded=1;whiteSpace=wrap;html=1;fillColor=#f8cecc;strokeColor=#b85450;" parent="1" vertex="1">
          <mxGeometry x="-40" y="-490" width="70" height="30" as="geometry" />
        </mxCell>
        <mxCell id="OePJW2D6s2tJLJosY-g_-48" value="posts/view/single" style="text;html=1;align=center;verticalAlign=middle;whiteSpace=wrap;rounded=0;" parent="1" vertex="1">
          <mxGeometry x="340" y="-540" width="90" height="30" as="geometry" />
        </mxCell>
        <mxCell id="u1kQUCtdj3Jz3g5r8L6l-17" style="edgeStyle=orthogonalEdgeStyle;rounded=0;orthogonalLoop=1;jettySize=auto;html=1;strokeColor=#2fac33;strokeWidth=3;" edge="1" parent="1" source="OePJW2D6s2tJLJosY-g_-49" target="u1kQUCtdj3Jz3g5r8L6l-3">
          <mxGeometry relative="1" as="geometry">
            <Array as="points">
              <mxPoint x="695" y="-90" />
            </Array>
          </mxGeometry>
        </mxCell>
        <mxCell id="OePJW2D6s2tJLJosY-g_-49" value="edit" style="rounded=1;whiteSpace=wrap;html=1;fillColor=#f5f5f5;strokeColor=#666666;fontColor=#333333;" parent="1" vertex="1">
          <mxGeometry x="675" y="-495" width="50" height="30" as="geometry" />
        </mxCell>
        <mxCell id="u1kQUCtdj3Jz3g5r8L6l-34" style="edgeStyle=orthogonalEdgeStyle;rounded=0;orthogonalLoop=1;jettySize=auto;html=1;entryX=0;entryY=0.5;entryDx=0;entryDy=0;" edge="1" parent="1" source="OePJW2D6s2tJLJosY-g_-51" target="u1kQUCtdj3Jz3g5r8L6l-24">
          <mxGeometry relative="1" as="geometry">
            <Array as="points">
              <mxPoint x="400" y="-20" />
            </Array>
          </mxGeometry>
        </mxCell>
        <mxCell id="OePJW2D6s2tJLJosY-g_-51" value="delete" style="rounded=1;whiteSpace=wrap;html=1;fillColor=#f8cecc;strokeColor=#b85450;" parent="1" vertex="1">
          <mxGeometry x="372.5" y="-495" width="50" height="30" as="geometry" />
        </mxCell>
        <mxCell id="tXDwjT8RLBTCq2n82AtY-1" style="edgeStyle=orthogonalEdgeStyle;rounded=0;orthogonalLoop=1;jettySize=auto;html=1;entryX=0.5;entryY=1;entryDx=0;entryDy=0;" parent="1" source="OePJW2D6s2tJLJosY-g_-52" target="6DN4xZ8-Na9VKB-5mM-E-1" edge="1">
          <mxGeometry relative="1" as="geometry" />
        </mxCell>
        <mxCell id="tXDwjT8RLBTCq2n82AtY-2" value="yes" style="edgeLabel;html=1;align=center;verticalAlign=middle;resizable=0;points=[];" parent="tXDwjT8RLBTCq2n82AtY-1" vertex="1" connectable="0">
          <mxGeometry x="-0.0753" y="3" relative="1" as="geometry">
            <mxPoint as="offset" />
          </mxGeometry>
        </mxCell>
        <mxCell id="u1kQUCtdj3Jz3g5r8L6l-14" style="edgeStyle=orthogonalEdgeStyle;rounded=0;orthogonalLoop=1;jettySize=auto;html=1;entryX=0;entryY=0.5;entryDx=0;entryDy=0;" edge="1" parent="1" source="OePJW2D6s2tJLJosY-g_-52" target="OePJW2D6s2tJLJosY-g_-14">
          <mxGeometry relative="1" as="geometry">
            <Array as="points">
              <mxPoint x="180" />
              <mxPoint x="270" />
              <mxPoint x="270" y="-505" />
            </Array>
          </mxGeometry>
        </mxCell>
        <mxCell id="u1kQUCtdj3Jz3g5r8L6l-23" value="no" style="edgeLabel;html=1;align=center;verticalAlign=middle;resizable=0;points=[];" vertex="1" connectable="0" parent="u1kQUCtdj3Jz3g5r8L6l-14">
          <mxGeometry x="-0.1828" relative="1" as="geometry">
            <mxPoint as="offset" />
          </mxGeometry>
        </mxCell>
        <mxCell id="OePJW2D6s2tJLJosY-g_-52" value="&lt;div style=&quot;color: rgb(151, 167, 200); background-color: rgb(33, 40, 54); font-family: Consolas, &amp;quot;Courier New&amp;quot;, monospace; line-height: 19px; white-space: pre;&quot;&gt;&lt;span style=&quot;color: #71b1fe;&quot;&gt;empty&lt;/span&gt;(&lt;span style=&quot;color: #d8d8d8;&quot;&gt;$&lt;/span&gt;&lt;span style=&quot;color: #e26674;&quot;&gt;postId&lt;/span&gt;)&lt;/div&gt;" style="rhombus;whiteSpace=wrap;html=1;" parent="1" vertex="1">
          <mxGeometry x="115" y="40" width="130" height="80" as="geometry" />
        </mxCell>
        <mxCell id="6DN4xZ8-Na9VKB-5mM-E-1" value="404" style="rounded=1;whiteSpace=wrap;html=1;" parent="1" vertex="1">
          <mxGeometry x="10" width="65" height="60" as="geometry" />
        </mxCell>
        <mxCell id="u1kQUCtdj3Jz3g5r8L6l-47" style="edgeStyle=orthogonalEdgeStyle;rounded=0;orthogonalLoop=1;jettySize=auto;html=1;" edge="1" parent="1" source="u1kQUCtdj3Jz3g5r8L6l-1" target="OePJW2D6s2tJLJosY-g_-16">
          <mxGeometry relative="1" as="geometry" />
        </mxCell>
        <mxCell id="u1kQUCtdj3Jz3g5r8L6l-1" value="posts/controller/update" style="rounded=1;whiteSpace=wrap;html=1;" vertex="1" parent="1">
          <mxGeometry x="1057.5" y="-270" width="140" height="60" as="geometry" />
        </mxCell>
        <mxCell id="u1kQUCtdj3Jz3g5r8L6l-6" style="edgeStyle=orthogonalEdgeStyle;rounded=0;orthogonalLoop=1;jettySize=auto;html=1;entryX=0;entryY=0.5;entryDx=0;entryDy=0;" edge="1" parent="1" target="u1kQUCtdj3Jz3g5r8L6l-5">
          <mxGeometry relative="1" as="geometry">
            <mxPoint x="985" y="-90" as="sourcePoint" />
          </mxGeometry>
        </mxCell>
        <mxCell id="u1kQUCtdj3Jz3g5r8L6l-7" value="no" style="edgeLabel;html=1;align=center;verticalAlign=middle;resizable=0;points=[];" vertex="1" connectable="0" parent="u1kQUCtdj3Jz3g5r8L6l-6">
          <mxGeometry x="-0.2327" relative="1" as="geometry">
            <mxPoint as="offset" />
          </mxGeometry>
        </mxCell>
        <mxCell id="u1kQUCtdj3Jz3g5r8L6l-8" value="yes" style="edgeLabel;html=1;align=center;verticalAlign=middle;resizable=0;points=[];" vertex="1" connectable="0" parent="u1kQUCtdj3Jz3g5r8L6l-6">
          <mxGeometry x="-0.2327" y="3" relative="1" as="geometry">
            <mxPoint as="offset" />
          </mxGeometry>
        </mxCell>
        <mxCell id="u1kQUCtdj3Jz3g5r8L6l-15" style="edgeStyle=orthogonalEdgeStyle;rounded=0;orthogonalLoop=1;jettySize=auto;html=1;" edge="1" parent="1" target="OePJW2D6s2tJLJosY-g_-16">
          <mxGeometry relative="1" as="geometry">
            <mxPoint x="920" y="-130" as="sourcePoint" />
          </mxGeometry>
        </mxCell>
        <mxCell id="u1kQUCtdj3Jz3g5r8L6l-16" value="no" style="edgeLabel;html=1;align=center;verticalAlign=middle;resizable=0;points=[];" vertex="1" connectable="0" parent="u1kQUCtdj3Jz3g5r8L6l-15">
          <mxGeometry x="-0.1132" y="-4" relative="1" as="geometry">
            <mxPoint as="offset" />
          </mxGeometry>
        </mxCell>
        <mxCell id="u1kQUCtdj3Jz3g5r8L6l-3" value="&lt;div style=&quot;color: rgb(151, 167, 200); background-color: rgb(33, 40, 54); font-family: Consolas, &amp;quot;Courier New&amp;quot;, monospace; line-height: 19px; white-space: pre;&quot;&gt;&lt;span style=&quot;color: #71b1fe;&quot;&gt;empty&lt;/span&gt;(&lt;span style=&quot;color: #d8d8d8;&quot;&gt;$&lt;/span&gt;&lt;span style=&quot;color: #e26674;&quot;&gt;postId&lt;/span&gt;)&lt;/div&gt;" style="rhombus;whiteSpace=wrap;html=1;" vertex="1" parent="1">
          <mxGeometry x="855" y="-130" width="130" height="80" as="geometry" />
        </mxCell>
        <mxCell id="u1kQUCtdj3Jz3g5r8L6l-5" value="404" style="rounded=1;whiteSpace=wrap;html=1;" vertex="1" parent="1">
          <mxGeometry x="1095" y="-120" width="65" height="60" as="geometry" />
        </mxCell>
        <mxCell id="u1kQUCtdj3Jz3g5r8L6l-21" style="edgeStyle=orthogonalEdgeStyle;rounded=0;orthogonalLoop=1;jettySize=auto;html=1;entryX=0.042;entryY=0.981;entryDx=0;entryDy=0;entryPerimeter=0;" edge="1" parent="1" source="OePJW2D6s2tJLJosY-g_-26" target="OePJW2D6s2tJLJosY-g_-32">
          <mxGeometry relative="1" as="geometry">
            <Array as="points">
              <mxPoint x="-160" y="305" />
              <mxPoint x="-160" y="40" />
              <mxPoint x="-157" y="40" />
            </Array>
          </mxGeometry>
        </mxCell>
        <mxCell id="u1kQUCtdj3Jz3g5r8L6l-22" style="edgeStyle=orthogonalEdgeStyle;rounded=0;orthogonalLoop=1;jettySize=auto;html=1;entryX=0.395;entryY=0.878;entryDx=0;entryDy=0;entryPerimeter=0;" edge="1" parent="1" source="OePJW2D6s2tJLJosY-g_-43" target="OePJW2D6s2tJLJosY-g_-52">
          <mxGeometry relative="1" as="geometry">
            <Array as="points">
              <mxPoint x="-120" y="130" />
              <mxPoint x="166" y="130" />
            </Array>
          </mxGeometry>
        </mxCell>
        <mxCell id="u1kQUCtdj3Jz3g5r8L6l-28" style="edgeStyle=orthogonalEdgeStyle;rounded=0;orthogonalLoop=1;jettySize=auto;html=1;entryX=0;entryY=0.5;entryDx=0;entryDy=0;" edge="1" parent="1" source="u1kQUCtdj3Jz3g5r8L6l-24" target="u1kQUCtdj3Jz3g5r8L6l-27">
          <mxGeometry relative="1" as="geometry" />
        </mxCell>
        <mxCell id="u1kQUCtdj3Jz3g5r8L6l-33" value="yes" style="edgeLabel;html=1;align=center;verticalAlign=middle;resizable=0;points=[];" vertex="1" connectable="0" parent="u1kQUCtdj3Jz3g5r8L6l-28">
          <mxGeometry x="0.0174" y="2" relative="1" as="geometry">
            <mxPoint as="offset" />
          </mxGeometry>
        </mxCell>
        <mxCell id="u1kQUCtdj3Jz3g5r8L6l-30" style="edgeStyle=orthogonalEdgeStyle;rounded=0;orthogonalLoop=1;jettySize=auto;html=1;entryX=0.5;entryY=1;entryDx=0;entryDy=0;" edge="1" parent="1" source="u1kQUCtdj3Jz3g5r8L6l-24" target="OePJW2D6s2tJLJosY-g_-18">
          <mxGeometry relative="1" as="geometry" />
        </mxCell>
        <mxCell id="u1kQUCtdj3Jz3g5r8L6l-32" value="no" style="edgeLabel;html=1;align=center;verticalAlign=middle;resizable=0;points=[];" vertex="1" connectable="0" parent="u1kQUCtdj3Jz3g5r8L6l-30">
          <mxGeometry x="0.0776" y="-2" relative="1" as="geometry">
            <mxPoint as="offset" />
          </mxGeometry>
        </mxCell>
        <mxCell id="u1kQUCtdj3Jz3g5r8L6l-24" value="&lt;div style=&quot;color: rgb(151, 167, 200); background-color: rgb(33, 40, 54); font-family: Consolas, &amp;quot;Courier New&amp;quot;, monospace; line-height: 19px; white-space: pre;&quot;&gt;&lt;span style=&quot;color: #71b1fe;&quot;&gt;empty&lt;/span&gt;(&lt;span style=&quot;color: #d8d8d8;&quot;&gt;$&lt;/span&gt;&lt;span style=&quot;color: #e26674;&quot;&gt;postId&lt;/span&gt;)&lt;/div&gt;" style="rhombus;whiteSpace=wrap;html=1;" vertex="1" parent="1">
          <mxGeometry x="422.5" y="-60" width="130" height="80" as="geometry" />
        </mxCell>
        <mxCell id="u1kQUCtdj3Jz3g5r8L6l-27" value="404" style="rounded=1;whiteSpace=wrap;html=1;" vertex="1" parent="1">
          <mxGeometry x="600" y="-45" width="40" height="50" as="geometry" />
        </mxCell>
        <mxCell id="u1kQUCtdj3Jz3g5r8L6l-35" style="edgeStyle=orthogonalEdgeStyle;rounded=0;orthogonalLoop=1;jettySize=auto;html=1;entryX=0.087;entryY=0.587;entryDx=0;entryDy=0;entryPerimeter=0;curved=1;" edge="1" parent="1" source="OePJW2D6s2tJLJosY-g_-47" target="u1kQUCtdj3Jz3g5r8L6l-24">
          <mxGeometry relative="1" as="geometry">
            <Array as="points">
              <mxPoint x="-5" y="-140" />
              <mxPoint x="340" y="-140" />
              <mxPoint x="340" y="20" />
              <mxPoint x="434" y="20" />
            </Array>
          </mxGeometry>
        </mxCell>
        <mxCell id="u1kQUCtdj3Jz3g5r8L6l-41" style="edgeStyle=orthogonalEdgeStyle;rounded=0;orthogonalLoop=1;jettySize=auto;html=1;strokeWidth=3;strokeColor=#990000;" edge="1" parent="1" source="u1kQUCtdj3Jz3g5r8L6l-36" target="OePJW2D6s2tJLJosY-g_-30">
          <mxGeometry relative="1" as="geometry">
            <Array as="points">
              <mxPoint x="660" y="-290" />
            </Array>
          </mxGeometry>
        </mxCell>
        <mxCell id="u1kQUCtdj3Jz3g5r8L6l-42" value="index" style="edgeLabel;html=1;align=center;verticalAlign=middle;resizable=0;points=[];" vertex="1" connectable="0" parent="u1kQUCtdj3Jz3g5r8L6l-41">
          <mxGeometry x="0.6021" y="-1" relative="1" as="geometry">
            <mxPoint y="-1" as="offset" />
          </mxGeometry>
        </mxCell>
        <mxCell id="u1kQUCtdj3Jz3g5r8L6l-43" style="edgeStyle=orthogonalEdgeStyle;rounded=0;orthogonalLoop=1;jettySize=auto;html=1;entryX=1;entryY=0.5;entryDx=0;entryDy=0;curved=1;strokeWidth=3;strokeColor=#b52626;" edge="1" parent="1" source="u1kQUCtdj3Jz3g5r8L6l-36" target="OePJW2D6s2tJLJosY-g_-32">
          <mxGeometry relative="1" as="geometry" />
        </mxCell>
        <mxCell id="u1kQUCtdj3Jz3g5r8L6l-44" value="index-posts" style="edgeLabel;html=1;align=center;verticalAlign=middle;resizable=0;points=[];" vertex="1" connectable="0" parent="u1kQUCtdj3Jz3g5r8L6l-43">
          <mxGeometry x="-0.8291" y="-1" relative="1" as="geometry">
            <mxPoint as="offset" />
          </mxGeometry>
        </mxCell>
        <mxCell id="u1kQUCtdj3Jz3g5r8L6l-36" value="source" style="rhombus;whiteSpace=wrap;html=1;" vertex="1" parent="1">
          <mxGeometry x="505" y="-330" width="80" height="80" as="geometry" />
        </mxCell>
        <mxCell id="u1kQUCtdj3Jz3g5r8L6l-38" style="edgeStyle=orthogonalEdgeStyle;rounded=0;orthogonalLoop=1;jettySize=auto;html=1;entryX=0.537;entryY=0.909;entryDx=0;entryDy=0;entryPerimeter=0;strokeWidth=3;strokeColor=#d22828;" edge="1" parent="1" source="u1kQUCtdj3Jz3g5r8L6l-36" target="OePJW2D6s2tJLJosY-g_-14">
          <mxGeometry relative="1" as="geometry" />
        </mxCell>
        <mxCell id="u1kQUCtdj3Jz3g5r8L6l-39" value="single" style="edgeLabel;html=1;align=center;verticalAlign=middle;resizable=0;points=[];" vertex="1" connectable="0" parent="u1kQUCtdj3Jz3g5r8L6l-38">
          <mxGeometry x="-0.3217" relative="1" as="geometry">
            <mxPoint y="4" as="offset" />
          </mxGeometry>
        </mxCell>
        <mxCell id="u1kQUCtdj3Jz3g5r8L6l-46" style="edgeStyle=orthogonalEdgeStyle;rounded=0;orthogonalLoop=1;jettySize=auto;html=1;entryX=0.115;entryY=0.5;entryDx=0;entryDy=0;entryPerimeter=0;curved=1;strokeWidth=3;strokeColor=#24ca21;" edge="1" parent="1" source="OePJW2D6s2tJLJosY-g_-45" target="u1kQUCtdj3Jz3g5r8L6l-3">
          <mxGeometry relative="1" as="geometry">
            <Array as="points">
              <mxPoint x="80" y="-660" />
              <mxPoint x="810" y="-660" />
              <mxPoint x="810" y="-90" />
            </Array>
          </mxGeometry>
        </mxCell>
      </root>
    </mxGraphModel>
  </diagram>
</mxfile>
